{
  "accessors": [
    {
      "bufferView": 2,
      "componentType": 5126,
      "count": 120,
      "max": [
        97.18753051757813,
        98.81401824951172,
        97.79452514648438
      ],
      "min": [
        -97.58678436279297,
        -63.065914154052734,
        -98.74100494384766
      ],
      "type": "VEC3"
    },
    {
      "bufferView": 2,
      "byteOffset": 1440,
      "componentType": 5126,
      "count": 120,
      "max": [
        1.0,
        1.0,
        1.0
      ],
      "min": [
        -1.0,
        -1.0,
        -1.0
      ],
      "type": "VEC3"
    },
    {
      "bufferView": 1,
      "componentType": 5126,
      "count": 120,
      "max": [
        1.0,
        1.0
      ],
      "min": [
        0.0,
        0.0
      ],
      "type": "VEC2"
    },
    {
      "bufferView": 0,
      "componentType": 5125,
      "count": 192,
      "type": "SCALAR"
    },
    {
      "bufferView": 2,
      "byteOffset": 2880,
      "componentType": 5126,
      "count": 72,
      "max": [
        97.18753051757813,
        98.81401824951172,
        97.79452514648438
      ],
      "min": [
        -97.58678436279297,
        -63.065914154052734,
        -98.74100494384766
      ],
      "type": "VEC3"
    },
    {
      "bufferView": 2,
      "byteOffset": 3744,
      "componentType": 5126,
      "count": 72,
      "max": [
        1.0,
        1.0,
        1.0
      ],
      "min": [
        -1.0,
        -1.0,
        -1.0
      ],
      "type": "VEC3"
    },
    {
      "bufferView": 1,
      "byteOffset": 960,
      "componentType": 5126,
      "count": 72,
      "max": [
        1.0,
        1.0
      ],
      "min": [
        0.0,
        0.0
      ],
      "type": "VEC2"
    },
    {
      "bufferView": 0,
      "byteOffset": 768,
      "componentType": 5125,
      "count": 132,
      "type": "SCALAR"
    },
    {
      "bufferView": 2,
      "byteOffset": 4608,
      "componentType": 5126,
      "count": 604,
      "max": [
        72.7050552368164,
        22.53069496154785,
        72.26058959960938
      ],
      "min": [
        -72.7050552368164,
        -22.53069496154785,
        -72.26058959960938
      ],
      "type": "VEC3"
    },
    {
      "bufferView": 2,
      "byteOffset": 11856,
      "componentType": 5126,
      "count": 604,
      "max": [
        1.0,
        0.999972939491272,
        1.0
      ],
      "min": [
        -1.0,
        -0.999972939491272,
        -1.0
      ],
      "type": "VEC3"
    },
    {
      "bufferView": 1,
      "byteOffset": 1536,
      "componentType": 5126,
      "count": 604,
      "max": [
        1.1105400323867798,
        0.8237918019294739
      ],
      "min": [
        0.0,
        0.1762082576751709
      ],
      "type": "VEC2"
    },
    {
      "bufferView": 1,
      "byteOffset": 6368,
      "componentType": 5126,
      "count": 604,
      "max": [
        1.2856398820877075,
        0.9755600690841675
      ],
      "min": [
        0.005419448018074036,
        0.4859588146209717
      ],
      "type": "VEC2"
    },
    {
      "bufferView": 1,
      "byteOffset": 11200,
      "componentType": 5126,
      "count": 604,
      "max": [
        1.2856398820877075,
        0.9396814107894897
      ],
      "min": [
        0.005419448018074036,
        0.47857046127319336
      ],
      "type": "VEC2"
    },
    {
      "bufferView": 1,
      "byteOffset": 16032,
      "componentType": 5126,
      "count": 604,
      "max": [
        1.2856398820877075,
        0.926893413066864
      ],
      "min": [
        0.005419448018074036,
        0.4416956901550293
      ],
      "type": "VEC2"
    },
    {
      "bufferView": 1,
      "byteOffset": 20864,
      "componentType": 5126,
      "count": 604,
      "max": [
        1.2856398820877075,
        0.9321269989013672
      ],
      "min": [
        0.005419448018074036,
        0.4562944173812866
      ],
      "type": "VEC2"
    },
    {
      "bufferView": 0,
      "byteOffset": 1296,
      "componentType": 5125,
      "count": 900,
      "type": "SCALAR"
    }
  ],
  "asset": {
    "extras": {
      "author": "mika.mapassion.83 (https://sketchfab.com/mika.mapassion.83)",
      "license": "CC-BY-4.0 (http://creativecommons.org/licenses/by/4.0/)",
      "source": "https://sketchfab.com/3d-models/cadeau-3713eac7cc8648059e01a7d491c61e1b",
      "title": "Cadeau"
    },
    "generator": "Sketchfab-15.0.0",
    "version": "2.0"
  },
  "bufferViews": [
    {
      "buffer": 0,
      "byteLength": 4896,
      "name": "floatBufferViews",
      "target": 34963
    },
    {
      "buffer": 0,
      "byteLength": 25696,
      "byteOffset": 4896,
      "byteStride": 8,
      "name": "floatBufferViews",
      "target": 34962
    },
    {
      "buffer": 0,
      "byteLength": 19104,
      "byteOffset": 30592,
      "byteStride": 12,
      "name": "floatBufferViews",
      "target": 34962
    }
  ],
  "buffers": [
    {
      "byteLength": 49696,
      "uri": "scene.bin"
    }
  ],
  "materials": [
    {
      "doubleSided": true,
      "name": "blanc_cadeau",
      "pbrMetallicRoughness": {
        "baseColorFactor": [
          1.0,
          0.970157,
          0.883773,
          1.0
        ],
        "metallicFactor": 0.0,
        "roughnessFactor": 0.7623346576913872
      }
    },
    {
      "doubleSided": true,
      "name": "rouge_cadeau",
      "pbrMetallicRoughness": {
        "baseColorFactor": [
          0.8,
          0.0283447,
          0.0324585,
          1.0
        ],
        "metallicFactor": 0.0,
        "roughnessFactor": 0.9569119465331599
      }
    }
  ],
  "meshes": [
    {
      "name": "cadeau_blanc cadeau_0",
      "primitives": [
        {
          "attributes": {
            "NORMAL": 1,
            "POSITION": 0,
            "TEXCOORD_0": 2
          },
          "indices": 3,
          "material": 0,
          "mode": 4
        }
      ]
    },
    {
      "name": "cadeau_rouge cadeau_0",
      "primitives": [
        {
          "attributes": {
            "NORMAL": 5,
            "POSITION": 4,
            "TEXCOORD_0": 6
          },
          "indices": 7,
          "material": 1,
          "mode": 4
        }
      ]
    },
    {
      "name": "noeud_cadeau_rouge cadeau_0",
      "primitives": [
        {
          "attributes": {
            "NORMAL": 9,
            "POSITION": 8,
            "TEXCOORD_0": 10,
            "TEXCOORD_1": 11,
            "TEXCOORD_2": 12,
            "TEXCOORD_3": 13,
            "TEXCOORD_4": 14
          },
          "indices": 15,
          "material": 1,
          "mode": 4
        }
      ]
    }
  ],
  "nodes": [
    {
      "children": [
        1
      ],
      "matrix": [
        1.0,
        0.0,
        0.0,
        0.0,
        0.0,
        2.220446049250313e-16,
        -1.0,
        0.0,
        0.0,
        1.0,
        2.220446049250313e-16,
        0.0,
        0.0,
        0.0,
        0.0,
        1.0
      ],
      "name": "Sketchfab_model"
    },
    {
      "children": [
        2
      ],
      "matrix": [
        0.009999999776482582,
        0.0,
        0.0,
        0.0,
        0.0,
        0.0,
        0.009999999776482582,
        0.0,
        0.0,
        -0.009999999776482582,
        0.0,
        0.0,
        0.0,
        0.0,
        0.0,
        1.0
      ],
      "name": "3615ca10405c4437b196bde33f9a8496.fbx"
    },
    {
      "children": [
        3
      ],
      "name": "RootNode"
    },
    {
      "children": [
        4,
        5,
        6
      ],
      "matrix": [
        1.0,
        0.0,
        0.0,
        0.0,
        0.0,
        1.0,
        0.0,
        0.0,
        0.0,
        0.0,
        1.0,
        0.0,
        0.0,
        64.54959106445313,
        0.0,
        1.0
      ],
      "name": "cadeau"
    },
    {
      "mesh": 0,
      "name": "cadeau_blanc cadeau_0"
    },
    {
      "mesh": 1,
      "name": "cadeau_rouge cadeau_0"
    },
    {
      "children": [
        7
      ],
      "matrix": [
        1.0,
        0.0,
        0.0,
        0.0,
        0.0,
        1.0,
        0.0,
        0.0,
        0.0,
        0.0,
        1.0,
        0.0,
        -1.462805151939392,
        120.0756607055664,
        -1.7952631711959839,
        1.0
      ],
      "name": "noeud_cadeau"
    },
    {
      "mesh": 2,
      "name": "noeud_cadeau_rouge cadeau_0"
    }
  ],
  "scene": 0,
  "scenes": [
    {
      "name": "Sketchfab_Scene",
      "nodes": [
        0
      ]
    }
  ]
}
