{
  "accessors": [
    {
      "bufferView": 2,
      "componentType": 5126,
      "count": 118,
      "max": [
        15.0,
        80.0,
        3.0
      ],
      "min": [
        -60.0,
        0.0,
        -87.0
      ],
      "type": "VEC3"
    },
    {
      "bufferView": 2,
      "byteOffset": 1416,
      "componentType": 5126,
      "count": 118,
      "max": [
        1.0,
        1.0,
        1.0
      ],
      "min": [
        -1.0,
        -1.0,
        -1.0
      ],
      "type": "VEC3"
    },
    {
      "bufferView": 1,
      "componentType": 5126,
      "count": 118,
      "max": [
        0.9998781681060791,
        0.9917357563972473
      ],
      "min": [
        0.0001188814640045166,
        7.320940494537354e-05
      ],
      "type": "VEC2"
    },
    {
      "bufferView": 1,
      "byteOffset": 944,
      "componentType": 5126,
      "count": 118,
      "max": [
        0.9998781681060791,
        0.9917357563972473
      ],
      "min": [
        0.0001188814640045166,
        7.320940494537354e-05
      ],
      "type": "VEC2"
    },
    {
      "bufferView": 1,
      "byteOffset": 1888,
      "componentType": 5126,
      "count": 118,
      "max": [
        0.9998781681060791,
        0.9917357563972473
      ],
      "min": [
        0.0001188814640045166,
        7.320940494537354e-05
      ],
      "type": "VEC2"
    },
    {
      "bufferView": 0,
      "componentType": 5125,
      "count": 192,
      "type": "SCALAR"
    },
    {
      "bufferView": 2,
      "byteOffset": 2832,
      "componentType": 5126,
      "count": 48,
      "max": [
        15.966784477233887,
        0.43564900755882263,
        12.754243850708008
      ],
      "min": [
        -15.966784477233887,
        -3.244615952739251e-22,
        -12.754244804382324
      ],
      "type": "VEC3"
    },
    {
      "bufferView": 2,
      "byteOffset": 3408,
      "componentType": 5126,
      "count": 48,
      "max": [
        1.0,
        1.0,
        1.0
      ],
      "min": [
        -1.0,
        -1.0,
        -1.0
      ],
      "type": "VEC3"
    },
    {
      "bufferView": 1,
      "byteOffset": 2832,
      "componentType": 5126,
      "count": 48,
      "max": [
        0.8055214881896973,
        0.991646409034729
      ],
      "min": [
        0.1981939971446991,
        0.00911027193069458
      ],
      "type": "VEC2"
    },
    {
      "bufferView": 1,
      "byteOffset": 3216,
      "componentType": 5126,
      "count": 48,
      "max": [
        0.8055214881896973,
        0.991646409034729
      ],
      "min": [
        0.1981939971446991,
        0.00911027193069458
      ],
      "type": "VEC2"
    },
    {
      "bufferView": 1,
      "byteOffset": 3600,
      "componentType": 5126,
      "count": 48,
      "max": [
        0.8055214881896973,
        0.991646409034729
      ],
      "min": [
        0.1981939971446991,
        0.00911027193069458
      ],
      "type": "VEC2"
    },
    {
      "bufferView": 0,
      "byteOffset": 768,
      "componentType": 5125,
      "count": 180,
      "type": "SCALAR"
    },
    {
      "bufferView": 2,
      "byteOffset": 3984,
      "componentType": 5126,
      "count": 3719,
      "max": [
        4.090336322784424,
        23.17560386657715,
        4.090265274047852
      ],
      "min": [
        -4.090378761291504,
        -7.511675357818604e-05,
        -4.09028959274292
      ],
      "type": "VEC3"
    },
    {
      "bufferView": 2,
      "byteOffset": 48612,
      "componentType": 5126,
      "count": 3719,
      "max": [
        1.0,
        1.0,
        1.0
      ],
      "min": [
        -1.0,
        -0.9999982118606567,
        -1.0
      ],
      "type": "VEC3"
    },
    {
      "bufferView": 1,
      "byteOffset": 3984,
      "componentType": 5126,
      "count": 3719,
      "max": [
        0.9914047718048096,
        0.9917920231819153
      ],
      "min": [
        0.007973752915859222,
        0.008019804954528809
      ],
      "type": "VEC2"
    },
    {
      "bufferView": 1,
      "byteOffset": 33736,
      "componentType": 5126,
      "count": 3719,
      "max": [
        0.9914047718048096,
        0.9917920231819153
      ],
      "min": [
        0.007973752915859222,
        0.008019804954528809
      ],
      "type": "VEC2"
    },
    {
      "bufferView": 1,
      "byteOffset": 63488,
      "componentType": 5126,
      "count": 3719,
      "max": [
        0.9914047718048096,
        0.9917920231819153
      ],
      "min": [
        0.007973752915859222,
        0.008019804954528809
      ],
      "type": "VEC2"
    },
    {
      "bufferView": 0,
      "byteOffset": 1488,
      "componentType": 5125,
      "count": 16638,
      "type": "SCALAR"
    },
    {
      "bufferView": 2,
      "byteOffset": 93240,
      "componentType": 5126,
      "count": 512,
      "max": [
        0.04919129237532616,
        0.017215773463249207,
        0.02056834287941456
      ],
      "min": [
        -0.04919129237532616,
        -0.017215773463249207,
        -0.02056833915412426
      ],
      "type": "VEC3"
    },
    {
      "bufferView": 2,
      "byteOffset": 99384,
      "componentType": 5126,
      "count": 512,
      "max": [
        1.0,
        1.0,
        1.0
      ],
      "min": [
        -1.0,
        -1.0,
        -1.0
      ],
      "type": "VEC3"
    },
    {
      "bufferView": 1,
      "byteOffset": 93240,
      "componentType": 5126,
      "count": 512,
      "max": [
        0.9999999403953552,
        1.0
      ],
      "min": [
        -0.0,
        0.0015795230865478516
      ],
      "type": "VEC2"
    },
    {
      "bufferView": 1,
      "byteOffset": 97336,
      "componentType": 5126,
      "count": 512,
      "max": [
        0.9999999403953552,
        1.0
      ],
      "min": [
        -0.0,
        0.0015795230865478516
      ],
      "type": "VEC2"
    },
    {
      "bufferView": 1,
      "byteOffset": 101432,
      "componentType": 5126,
      "count": 512,
      "max": [
        0.9999999403953552,
        1.0
      ],
      "min": [
        -0.0,
        0.0015795230865478516
      ],
      "type": "VEC2"
    },
    {
      "bufferView": 0,
      "byteOffset": 68040,
      "componentType": 5125,
      "count": 948,
      "type": "SCALAR"
    },
    {
      "bufferView": 2,
      "byteOffset": 105528,
      "componentType": 5126,
      "count": 294,
      "max": [
        0.015852851793169975,
        0.002641744678840041,
        0.006583250127732754
      ],
      "min": [
        -0.015852851793169975,
        -0.002641744213178754,
        -0.0065832482650876045
      ],
      "type": "VEC3"
    },
    {
      "bufferView": 2,
      "byteOffset": 109056,
      "componentType": 5126,
      "count": 294,
      "max": [
        0.9900835752487183,
        1.0,
        0.990083634853363
      ],
      "min": [
        -0.9900835752487183,
        -1.0,
        -0.990083634853363
      ],
      "type": "VEC3"
    },
    {
      "bufferView": 1,
      "byteOffset": 105528,
      "componentType": 5126,
      "count": 294,
      "max": [
        1.0,
        0.7783347368240356
      ],
      "min": [
        -0.0,
        0.04751688241958618
      ],
      "type": "VEC2"
    },
    {
      "bufferView": 1,
      "byteOffset": 107880,
      "componentType": 5126,
      "count": 294,
      "max": [
        1.0,
        0.7783347368240356
      ],
      "min": [
        -0.0,
        0.04751688241958618
      ],
      "type": "VEC2"
    },
    {
      "bufferView": 1,
      "byteOffset": 110232,
      "componentType": 5126,
      "count": 294,
      "max": [
        1.0,
        0.7783347368240356
      ],
      "min": [
        -0.0,
        0.04751688241958618
      ],
      "type": "VEC2"
    },
    {
      "bufferView": 0,
      "byteOffset": 71832,
      "componentType": 5125,
      "count": 720,
      "type": "SCALAR"
    },
    {
      "bufferView": 2,
      "byteOffset": 112584,
      "componentType": 5126,
      "count": 6746,
      "max": [
        4.614370346069336,
        6.6566290855407715,
        0.9153593182563782
      ],
      "min": [
        -4.614370346069336,
        0.03083200938999653,
        -0.9153593182563782
      ],
      "type": "VEC3"
    },
    {
      "bufferView": 2,
      "byteOffset": 193536,
      "componentType": 5126,
      "count": 6746,
      "max": [
        1.0,
        1.0,
        1.0
      ],
      "min": [
        -0.999999463558197,
        -1.0,
        -1.0
      ],
      "type": "VEC3"
    },
    {
      "bufferView": 1,
      "byteOffset": 112584,
      "componentType": 5126,
      "count": 6746,
      "max": [
        0.9928817749023438,
        0.9937894940376282
      ],
      "min": [
        0.007879406213760376,
        0.009980320930480957
      ],
      "type": "VEC2"
    },
    {
      "bufferView": 1,
      "byteOffset": 166552,
      "componentType": 5126,
      "count": 6746,
      "max": [
        0.9928817749023438,
        0.9937894940376282
      ],
      "min": [
        0.007879406213760376,
        0.009980320930480957
      ],
      "type": "VEC2"
    },
    {
      "bufferView": 1,
      "byteOffset": 220520,
      "componentType": 5126,
      "count": 6746,
      "max": [
        0.9928817749023438,
        0.9937894940376282
      ],
      "min": [
        0.007879406213760376,
        0.009980320930480957
      ],
      "type": "VEC2"
    },
    {
      "bufferView": 0,
      "byteOffset": 74712,
      "componentType": 5125,
      "count": 32493,
      "type": "SCALAR"
    }
  ],
  "asset": {
    "extras": {
      "author": "Filippo_zagaria (https://sketchfab.com/Filippo_zagaria)",
      "license": "CC-BY-4.0 (http://creativecommons.org/licenses/by/4.0/)",
      "source": "https://sketchfab.com/3d-models/zagaria-poltroncina-con-ambientazione-86d9dd78b7d742bb9d3b43f778733278",
      "title": "Zagaria Poltroncina con Ambientazione"
    },
    "generator": "Sketchfab-16.12.0",
    "version": "2.0"
  },
  "bufferViews": [
    {
      "buffer": 0,
      "byteLength": 204684,
      "name": "floatBufferViews",
      "target": 34963
    },
    {
      "buffer": 0,
      "byteLength": 274488,
      "byteOffset": 204684,
      "byteStride": 8,
      "name": "floatBufferViews",
      "target": 34962
    },
    {
      "buffer": 0,
      "byteLength": 274488,
      "byteOffset": 479172,
      "byteStride": 12,
      "name": "floatBufferViews",
      "target": 34962
    }
  ],
  "buffers": [
    {
      "byteLength": 753660,
      "uri": "scene.bin"
    }
  ],
  "extensionsRequired": [
    "KHR_materials_pbrSpecularGlossiness"
  ],
  "extensionsUsed": [
    "KHR_materials_pbrSpecularGlossiness"
  ],
  "images": [
    {
      "uri": "textures/material_diffuse.png"
    },
    {
      "uri": "textures/material_specularGlossiness.png"
    },
    {
      "uri": "textures/material_1_diffuse.png"
    },
    {
      "uri": "textures/material_1_specularGlossiness.png"
    },
    {
      "uri": "textures/material_2_diffuse.png"
    },
    {
      "uri": "textures/material_2_specularGlossiness.png"
    },
    {
      "uri": "textures/material_3_diffuse.png"
    },
    {
      "uri": "textures/material_3_specularGlossiness.png"
    },
    {
      "uri": "textures/material_5_diffuse.png"
    },
    {
      "uri": "textures/material_5_specularGlossiness.png"
    }
  ],
  "materials": [
    {
      "doubleSided": true,
      "extensions": {
        "KHR_materials_pbrSpecularGlossiness": {
          "diffuseFactor": [
            1.0,
            1.0,
            1.0,
            1.0
          ],
          "diffuseTexture": {
            "index": 0
          },
          "glossinessFactor": 1.0,
          "specularFactor": [
            1.0,
            1.0,
            1.0
          ],
          "specularGlossinessTexture": {
            "index": 1
          }
        }
      },
      "name": "material"
    },
    {
      "doubleSided": true,
      "extensions": {
        "KHR_materials_pbrSpecularGlossiness": {
          "diffuseFactor": [
            1.0,
            1.0,
            1.0,
            1.0
          ],
          "diffuseTexture": {
            "index": 2
          },
          "glossinessFactor": 1.0,
          "specularFactor": [
            1.0,
            1.0,
            1.0
          ],
          "specularGlossinessTexture": {
            "index": 3
          }
        }
      },
      "name": "material_1"
    },
    {
      "alphaMode": "MASK",
      "doubleSided": true,
      "extensions": {
        "KHR_materials_pbrSpecularGlossiness": {
          "diffuseFactor": [
            1.0,
            1.0,
            1.0,
            1.0
          ],
          "diffuseTexture": {
            "index": 4
          },
          "glossinessFactor": 1.0,
          "specularFactor": [
            1.0,
            1.0,
            1.0
          ],
          "specularGlossinessTexture": {
            "index": 5
          }
        }
      },
      "name": "material_2"
    },
    {
      "doubleSided": true,
      "extensions": {
        "KHR_materials_pbrSpecularGlossiness": {
          "diffuseFactor": [
            1.0,
            1.0,
            1.0,
            1.0
          ],
          "diffuseTexture": {
            "index": 6
          },
          "glossinessFactor": 1.0,
          "specularFactor": [
            1.0,
            1.0,
            1.0
          ],
          "specularGlossinessTexture": {
            "index": 7
          }
        }
      },
      "name": "material_3"
    },
    {
      "doubleSided": true,
      "extensions": {
        "KHR_materials_pbrSpecularGlossiness": {
          "diffuseFactor": [
            1.0,
            1.0,
            1.0,
            1.0
          ],
          "diffuseTexture": {
            "index": 6
          },
          "glossinessFactor": 1.0,
          "specularFactor": [
            1.0,
            1.0,
            1.0
          ],
          "specularGlossinessTexture": {
            "index": 7
          }
        }
      },
      "name": "material_4"
    },
    {
      "doubleSided": true,
      "extensions": {
        "KHR_materials_pbrSpecularGlossiness": {
          "diffuseFactor": [
            1.0,
            1.0,
            1.0,
            1.0
          ],
          "diffuseTexture": {
            "index": 8
          },
          "glossinessFactor": 1.0,
          "specularFactor": [
            1.0,
            1.0,
            1.0
          ],
          "specularGlossinessTexture": {
            "index": 9
          }
        }
      },
      "name": "material_5"
    }
  ],
  "meshes": [
    {
      "name": "Object_0",
      "primitives": [
        {
          "attributes": {
            "NORMAL": 1,
            "POSITION": 0,
            "TEXCOORD_0": 2,
            "TEXCOORD_1": 3,
            "TEXCOORD_2": 4
          },
          "indices": 5,
          "material": 0,
          "mode": 4
        }
      ]
    },
    {
      "name": "Object_1",
      "primitives": [
        {
          "attributes": {
            "NORMAL": 7,
            "POSITION": 6,
            "TEXCOORD_0": 8,
            "TEXCOORD_1": 9,
            "TEXCOORD_2": 10
          },
          "indices": 11,
          "material": 1,
          "mode": 4
        }
      ]
    },
    {
      "name": "Object_2",
      "primitives": [
        {
          "attributes": {
            "NORMAL": 13,
            "POSITION": 12,
            "TEXCOORD_0": 14,
            "TEXCOORD_1": 15,
            "TEXCOORD_2": 16
          },
          "indices": 17,
          "material": 2,
          "mode": 4
        }
      ]
    },
    {
      "name": "Object_3",
      "primitives": [
        {
          "attributes": {
            "NORMAL": 19,
            "POSITION": 18,
            "TEXCOORD_0": 20,
            "TEXCOORD_1": 21,
            "TEXCOORD_2": 22
          },
          "indices": 23,
          "material": 3,
          "mode": 4
        }
      ]
    },
    {
      "name": "Object_4",
      "primitives": [
        {
          "attributes": {
            "NORMAL": 25,
            "POSITION": 24,
            "TEXCOORD_0": 26,
            "TEXCOORD_1": 27,
            "TEXCOORD_2": 28
          },
          "indices": 29,
          "material": 4,
          "mode": 4
        }
      ]
    },
    {
      "name": "Object_5",
      "primitives": [
        {
          "attributes": {
            "NORMAL": 31,
            "POSITION": 30,
            "TEXCOORD_0": 32,
            "TEXCOORD_1": 33,
            "TEXCOORD_2": 34
          },
          "indices": 35,
          "material": 5,
          "mode": 4
        }
      ]
    }
  ],
  "nodes": [
    {
      "children": [
        1
      ],
      "matrix": [
        1.0,
        0.0,
        0.0,
        0.0,
        0.0,
        2.220446049250313e-16,
        -1.0,
        0.0,
        0.0,
        1.0,
        2.220446049250313e-16,
        0.0,
        0.0,
        0.0,
        0.0,
        1.0
      ],
      "name": "Sketchfab_model"
    },
    {
      "children": [
        2
      ],
      "name": "root"
    },
    {
      "children": [
        3
      ],
      "matrix": [
        1.0,
        0.0,
        0.0,
        0.0,
        0.0,
        2.220446049250313e-16,
        1.0,
        0.0,
        0.0,
        -1.0,
        2.220446049250313e-16,
        0.0,
        0.0,
        0.0,
        0.0,
        1.0
      ],
      "name": "GLTF_SceneRootNode"
    },
    {
      "children": [
        4,
        6,
        8,
        10,
        18
      ],
      "name": "root_0"
    },
    {
      "children": [
        5
      ],
      "matrix": [
        0.005535058885016921,
        -0.0,
        -0.0032129623449997885,
        0.0,
        0.0,
        0.006400000303983688,
        0.0,
        0.0,
        0.0032129623449997885,
        0.0,
        0.005535058885016921,
        0.0,
        -0.2565641701221466,
        -0.23680031299591064,
        0.4171124994754791,
        1.0
      ],
      "name": "node_id5_2"
    },
    {
      "mesh": 0,
      "name": "Object_5"
    },
    {
      "children": [
        7
      ],
      "matrix": [
        0.0,
        -0.0,
        -0.05321267992258072,
        0.0,
        0.0,
        0.05321265012025833,
        -0.0,
        0.0,
        0.05321265012025833,
        0.0,
        0.0,
        0.0,
        -0.2459530085325241,
        -0.23680031299591064,
        -0.09139295667409897,
        1.0
      ],
      "name": "node_id35_4"
    },
    {
      "mesh": 1,
      "name": "Object_7"
    },
    {
      "children": [
        9
      ],
      "matrix": [
        -0.03196623548865318,
        0.0,
        0.0,
        0.0,
        0.0,
        0.03196623548865318,
        0.0,
        0.0,
        0.0,
        0.0,
        -0.03196623548865318,
        0.0,
        -0.6336308121681213,
        -0.21473215520381927,
        -0.5236429572105408,
        1.0
      ],
      "name": "node_id63_5"
    },
    {
      "mesh": 2,
      "name": "Object_9"
    },
    {
      "children": [
        11
      ],
      "matrix": [
        0.0008512638428988079,
        -0.0,
        -0.000524737774452552,
        0.0,
        0.0,
        0.0010000000474974513,
        -0.0,
        0.0,
        0.000524737774452552,
        0.0,
        0.0008512638428988079,
        0.0,
        0.3091476559638977,
        -0.14539305865764618,
        -0.5169532299041748,
        1.0
      ],
      "name": "node_id77_6"
    },
    {
      "children": [
        12
      ],
      "matrix": [
        7.430779078276828e-05,
        -7.43077863536788e-05,
        -1246.6778564453082,
        -0.0,
        1246.6779785156207,
        7.43077980587259e-05,
        7.430779362963599e-05,
        0.0,
        -7.430780090559317e-05,
        1246.6781005859332,
        -7.430780533468351e-05,
        0.0,
        -178.8201141357422,
        15.63388442993164,
        9.859392166137695,
        1.0
      ],
      "name": "node_id70_7"
    },
    {
      "children": [
        13
      ],
      "matrix": [
        1.0,
        0.0,
        -0.0,
        0.0,
        0.0,
        1.0,
        5.269042982977683e-24,
        0.0,
        0.0,
        -5.269042982977683e-24,
        1.0,
        0.0,
        0.0,
        0.0,
        0.0,
        1.0
      ],
      "name": "node_id71_3"
    },
    {
      "children": [
        14,
        16
      ],
      "matrix": [
        1.0,
        7.341775187796884e-09,
        3.033877963972636e-32,
        0.0,
        -7.341775187796884e-09,
        1.0,
        5.269042982977683e-24,
        0.0,
        8.345349396134471e-33,
        -5.269042982977683e-24,
        1.0,
        0.0,
        0.0,
        0.0,
        0.0,
        1.0
      ],
      "name": "node_id72_9"
    },
    {
      "children": [
        15
      ],
      "matrix": [
        4.174432754516602,
        2.4344375740855325e-15,
        -2.8677777876925153e-32,
        0.0,
        -2.4344361836807004e-15,
        4.1744303703308105,
        2.1995253050720487e-23,
        0.0,
        2.8677774325046146e-32,
        -2.1995253050720487e-23,
        4.1744303703308105,
        0.0,
        0.0,
        0.0,
        0.0,
        1.0
      ],
      "name": "node_id73_10"
    },
    {
      "mesh": 3,
      "name": "Object_15"
    },
    {
      "children": [
        17
      ],
      "matrix": [
        4.174432754516602,
        2.4344375740855325e-15,
        -2.8677777876925153e-32,
        0.0,
        -2.4344361836807004e-15,
        4.1744303703308105,
        2.1995253050720487e-23,
        0.0,
        2.8677774325046146e-32,
        -2.1995253050720487e-23,
        4.1744303703308105,
        0.0,
        5.611218512058258e-08,
        -0.05748188495635986,
        -0.006178233772516251,
        1.0
      ],
      "name": "node_id75_11"
    },
    {
      "mesh": 4,
      "name": "Object_17"
    },
    {
      "children": [
        19
      ],
      "matrix": [
        0.02911185968881265,
        0.0,
        0.047227156647135636,
        0.0,
        0.0,
        0.05547886714339256,
        0.0,
        0.0,
        -0.047227156647135636,
        0.0,
        0.02911185968881265,
        0.0,
        0.17342285811901093,
        -0.028058640658855438,
        -0.40492239594459534,
        1.0
      ],
      "name": "node_id90_8"
    },
    {
      "mesh": 5,
      "name": "Object_19"
    }
  ],
  "samplers": [
    {
      "magFilter": 9729,
      "minFilter": 9987,
      "wrapS": 10497,
      "wrapT": 10497
    }
  ],
  "scene": 0,
  "scenes": [
    {
      "name": "Sketchfab_Scene",
      "nodes": [
        0
      ]
    }
  ],
  "textures": [
    {
      "sampler": 0,
      "source": 0
    },
    {
      "sampler": 0,
      "source": 1
    },
    {
      "sampler": 0,
      "source": 2
    },
    {
      "sampler": 0,
      "source": 3
    },
    {
      "sampler": 0,
      "source": 4
    },
    {
      "sampler": 0,
      "source": 5
    },
    {
      "sampler": 0,
      "source": 6
    },
    {
      "sampler": 0,
      "source": 7
    },
    {
      "sampler": 0,
      "source": 8
    },
    {
      "sampler": 0,
      "source": 9
    }
  ]
}
