{
  "accessors": [
    {
      "bufferView": 2,
      "componentType": 5126,
      "count": 58100,
      "max": [
        0.6917080283164978,
        0.6788709759712219,
        2.161963939666748
      ],
      "min": [
        -0.665913999080658,
        -0.6787909865379333,
        0.24260899424552917
      ],
      "type": "VEC3"
    },
    {
      "bufferView": 2,
      "byteOffset": 697200,
      "componentType": 5126,
      "count": 58100,
      "max": [
        0.9999827742576599,
        0.9999977946281433,
        0.9999997615814209
      ],
      "min": [
        -0.9999632239341736,
        -0.9999910593032837,
        -0.99998539686203
      ],
      "type": "VEC3"
    },
    {
      "bufferView": 1,
      "componentType": 5126,
      "count": 58100,
      "max": [
        0.999343991279602,
        0.9989479780197144
      ],
      "min": [
        2.4000000848900527e-05,
        0.00018099999579135329
      ],
      "type": "VEC2"
    },
    {
      "bufferView": 0,
      "componentType": 5125,
      "count": 317148,
      "type": "SCALAR"
    }
  ],
  "asset": {
    "extras": {
      "author": "Solomon Bixby (https://sketchfab.com/solomonbixby)",
      "license": "CC-BY-4.0 (http://creativecommons.org/licenses/by/4.0/)",
      "source": "https://sketchfab.com/3d-models/eliza-2-22e8f65221e94ac4ad95fe2ab241fa27",
      "title": "Eliza 2"
    },
    "generator": "Sketchfab-16.12.0",
    "version": "2.0"
  },
  "bufferViews": [
    {
      "buffer": 0,
      "byteLength": 1268592,
      "name": "floatBufferViews",
      "target": 34963
    },
    {
      "buffer": 0,
      "byteLength": 464800,
      "byteOffset": 1268592,
      "byteStride": 8,
      "name": "floatBufferViews",
      "target": 34962
    },
    {
      "buffer": 0,
      "byteLength": 1394400,
      "byteOffset": 1733392,
      "byteStride": 12,
      "name": "floatBufferViews",
      "target": 34962
    }
  ],
  "buffers": [
    {
      "byteLength": 3127792,
      "uri": "scene.bin"
    }
  ],
  "extensionsUsed": [
    "KHR_materials_unlit"
  ],
  "images": [
    {
      "uri": "textures/poly_0_baseColor.jpeg"
    }
  ],
  "materials": [
    {
      "doubleSided": true,
      "extensions": {
        "KHR_materials_unlit": {}
      },
      "name": "poly_0",
      "pbrMetallicRoughness": {
        "baseColorTexture": {
          "index": 0
        },
        "metallicFactor": 0.0
      }
    }
  ],
  "meshes": [
    {
      "name": "Object_0",
      "primitives": [
        {
          "attributes": {
            "NORMAL": 1,
            "POSITION": 0,
            "TEXCOORD_0": 2
          },
          "indices": 3,
          "material": 0,
          "mode": 4
        }
      ]
    }
  ],
  "nodes": [
    {
      "children": [
        1
      ],
      "matrix": [
        0.7397491931915283,
        0.0,
        0.0,
        0.0,
        0.0,
        1.6425731734582357e-16,
        -0.7397491931915283,
        0.0,
        0.0,
        0.7397491931915283,
        1.6425731734582357e-16,
        0.0,
        0.0,
        0.0,
        0.0,
        1.0
      ],
      "name": "Sketchfab_model"
    },
    {
      "children": [
        2
      ],
      "name": "poly.obj.cleaner.materialmerger.gles"
    },
    {
      "mesh": 0,
      "name": "Object_2"
    }
  ],
  "samplers": [
    {
      "magFilter": 9729,
      "minFilter": 9987,
      "wrapS": 10497,
      "wrapT": 10497
    }
  ],
  "scene": 0,
  "scenes": [
    {
      "name": "Sketchfab_Scene",
      "nodes": [
        0
      ]
    }
  ],
  "textures": [
    {
      "sampler": 0,
      "source": 0
    }
  ]
}
